<svg id="Capa_1" enable-background="new 0 0 512.005 512.005" height="512" viewBox="0 0 512.005 512.005" width="512" xmlns="http://www.w3.org/2000/svg"><g><path fill="#86C4FF" d="m398.277 500.005-23.079-30.771-28.341-127.537c-2.387-10.741-6.242-21.101-11.459-30.79l-47.847-88.858v-22.158c0-4.142-3.358-7.5-7.5-7.5s-7.5 3.358-7.5 7.5v13.994l-57.951-17.235c5.201-6.42 8.249-14.292 8.742-22.527 2.74.779 5.626 1.205 8.612 1.205h48.097c17.396 0 31.548-14.152 31.548-31.548v-20.6l37.815-32.413c5.438-4.661 8.28-11.7 7.603-18.83-.678-7.13-4.794-13.508-11.013-17.061l-36.764-21.007c-8.631-17.709-25.278-30.622-44.979-33.302-16.537-2.249-32.728 2.233-45.593 12.624-5.112 4.129-9.447 9.072-12.901 14.553l-73.832 31.643c-8.497 3.642-14.032 11.642-14.443 20.877-.412 9.236 4.389 17.696 12.529 22.079l70.383 37.899v3.537c0 8.05 3.035 15.402 8.016 20.982v6.989c0 5.982-2.178 11.749-6.133 16.238l-20.891 23.714c-14.482 16.44-23.264 36.656-25.395 58.461l-19.487 199.457-22.789 30.384c-1.705 2.272-1.979 5.313-.708 7.854 1.27 2.541 3.867 4.146 6.708 4.146h48.097c4.142 0 7.5-3.358 7.5-7.5v-30.894l40.684-127.137c1.263-3.945-.912-8.167-4.857-9.429-3.941-1.262-8.166.912-9.429 4.857l-39.369 123.039h-10.305l17.052-174.54 45.543 11.133-2.655 8.298c-1.263 3.945.912 8.167 4.857 9.429 3.943 1.262 8.167-.912 9.429-4.857l8.845-27.641 60.054 66.727c1.532 1.702 2.675 3.666 3.399 5.837l38.11 114.332v30.847c0 4.142 3.358 7.5 7.5 7.5h48.097c2.841 0 5.438-1.605 6.708-4.146s.996-5.582-.708-7.854zm-237.952-3h-25.597l12.799-17.064h12.798zm19.678-417.355 15.301-6.12-.913 11.875zm100.048 80.677h-48.097c-9.125 0-16.548-7.423-16.548-16.548v-32.581h18.297c3.139 9.309 11.946 16.032 22.3 16.032s19.16-6.724 22.3-16.032h18.297v32.581c-.001 9.125-7.424 16.548-16.549 16.548zm-.637-97.197c-2.462 8.104-9.385 14.535-17.637 16.385-10.15 2.275-22.191-1.953-27.566-12.648l33.9-16.95c2.86-1.43 6.181-1.193 8.884.632 1.157.781 3.815 3.03 3.491 7.021-.148 1.832-.509 3.704-1.072 5.56zm-23.386 32.03c2.798 0 5.646-.303 8.506-.906v9.425c0 .006-.001.013-.001.019v.01c-.005 4.7-3.83 8.522-8.532 8.522-4.705 0-8.532-3.827-8.532-8.532v-9.468c2.774.608 5.639.93 8.559.93zm82.533-27.26c2.019 1.153 3.302 3.142 3.522 5.456s-.666 4.509-2.431 6.022l-21.438 18.375c.146-1.074.183-2.167.099-3.262l-2.917-37.924c-.052-.677-.125-1.348-.198-2.019zm-110.467-43.039c9.618-7.769 21.745-11.119 34.145-9.431 20.464 2.784 36.53 20.568 38.201 42.288l2.917 37.924c.005.062.018.225-.136.391-.153.165-.317.165-.378.165h-23.308v-8.748c6.662-4.942 11.794-11.942 14.231-19.96.875-2.88 1.438-5.811 1.672-8.711.667-8.238-3.088-15.962-10.047-20.662-7.143-4.824-16.335-5.444-23.987-1.618l-39.838 19.919c-3.125 1.563-4.757 5.075-3.936 8.471 2.282 9.438 7.674 17.213 14.841 22.523v8.785h-23.308c-.062 0-.226 0-.378-.165-.154-.166-.141-.329-.136-.391l3.047-39.607c.933-12.148 6.91-23.511 16.398-31.173zm-90.96 64.276c-3.07-1.653-4.811-4.72-4.656-8.204s2.162-6.385 5.367-7.758l59.961-25.698c-.504 2.437-.875 4.907-1.067 7.408l-.152 1.976-39.563 15.826c-2.847 1.139-4.714 3.896-4.714 6.963s1.867 5.825 4.714 6.963l37.891 15.157c.693 1.623 1.646 3.139 2.864 4.455.792.854 1.678 1.601 2.627 2.25v14.732zm93.245 175.567c-2.626.564-4.75 2.489-5.568 5.047l-5.587 17.461-48.653-11.893.361-3.696c1.823-18.651 9.334-35.943 21.722-50.005l11.061-12.557 71.21 21.179 16.575 30.783-35.896 26.081-18.075-20.084c-1.797-1.997-4.524-2.88-7.15-2.316zm75.941 78.75-40.626-45.14 32.983-23.964 23.514 43.668c4.563 8.475 7.936 17.537 10.024 26.932l26.664 119.989h-9.293l-36.786-110.356c-1.38-4.14-3.56-7.884-6.48-11.129zm45.36 153.551v-17.065h12.798l12.799 17.064h-25.597z"/></g></svg>